<svg width="219" height="64" viewBox="0 0 219 64" fill="none" xmlns="http://www.w3.org/2000/svg">
<path d="M39.8677 34.5214C39.9847 32.4348 41.0065 30.5965 42.548 29.2933C44.0597 28.0133 46.0945 27.231 48.3146 27.231C50.5325 27.231 52.5673 28.0133 54.0801 29.2933C55.6205 30.5965 56.6423 32.4348 56.7604 34.5192C56.8774 36.6632 56.0156 38.655 54.5038 40.1314C52.9623 41.6332 50.7698 42.5755 48.3146 42.5755C45.8594 42.5755 43.6625 41.6332 42.122 40.1314C40.6092 38.655 39.7496 36.6632 39.8677 34.5214Z" fill="#0E548B"/>
<path d="M26.4165 38.7376C26.4308 39.5542 26.6912 41.1409 27.0818 42.3801C27.9028 45.003 29.2953 47.4295 31.233 49.568C33.2214 51.766 35.67 53.5315 38.4981 54.7851C41.4708 56.1015 44.6918 56.7724 48.0374 56.7669C51.3216 56.7719 54.57 56.0854 57.5712 54.752C60.3993 53.4863 62.8457 51.7131 64.8308 49.5139C66.7673 47.3666 68.1577 44.9357 68.9809 42.3128C69.3947 40.9875 69.6562 39.6424 69.761 38.2929C69.8636 36.9614 69.8203 35.6227 69.6319 34.3006C69.2671 31.7271 68.3652 29.2589 66.9847 27.0565C65.7065 25.0073 64.071 23.204 62.156 21.7324L62.1605 21.7291L42.6173 6.72327C42.6011 6.70929 42.5842 6.69605 42.5665 6.68355C41.2843 5.69927 39.1282 5.70258 37.718 6.68906C36.2923 7.68658 36.129 9.33624 37.398 10.3768L37.3925 10.3823L45.5436 17.0107L20.6995 17.0372H20.6664C18.6129 17.0394 16.6388 18.3867 16.2482 20.0893C15.8465 21.824 17.2413 23.2629 19.3765 23.2706L19.3731 23.2783L31.9657 23.254L9.49507 40.502L9.409 40.566C7.28928 42.1892 6.60404 44.8882 7.93921 46.5964C9.29425 48.3332 12.1753 48.3365 14.3171 46.6063L26.5809 36.5693C26.5809 36.5693 26.4021 37.9244 26.4165 38.7376ZM57.9298 43.275C55.4029 45.8493 51.8653 47.3092 48.0374 47.3169C44.204 47.3235 40.6664 45.8769 38.1395 43.307C36.9465 42.1073 36.0253 40.6653 35.4382 39.0786C34.8881 37.568 34.6764 35.955 34.8181 34.3536C34.9517 32.7922 35.413 31.2766 36.172 29.9056C36.9355 28.5325 37.956 27.3191 39.1778 26.3315C41.6341 24.3299 44.7613 23.2463 48.0319 23.2419C51.3058 23.2375 54.4308 24.3111 56.8893 26.3062C58.1089 27.2908 59.1281 28.5003 59.8918 29.8692C60.6524 31.2391 61.1156 32.754 61.2512 34.315C61.3899 35.9154 61.1775 37.5268 60.6289 39.0366C60.0437 40.6267 59.1232 42.0722 57.9298 43.275Z" fill="#F4792B"/>
<path d="M173.757 34.4872C173.945 32.3818 175.573 31.0467 178.059 31.0467C180.548 31.0467 182.175 32.3818 182.364 34.4872H173.757ZM182.109 39.6856C181.472 41.2458 179.971 42.1694 177.933 42.1694C175.381 42.1694 173.663 40.576 173.593 38.0591H188.266V37.3187C188.266 31.0136 184.565 27.4704 177.933 27.4704C171.494 27.4704 167.6 31.0467 167.6 36.6555C167.6 42.2985 171.554 45.8693 177.933 45.8693C181.761 45.8693 184.729 44.5573 186.559 42.2511L182.109 39.6856ZM108.654 34.4971C108.849 32.3918 110.476 31.0566 112.964 31.0566C115.449 31.0566 117.076 32.3918 117.267 34.4971H108.654ZM117.012 39.6955C116.374 41.2602 114.875 42.1838 112.832 42.1838C110.284 42.1838 108.562 40.586 108.494 38.0679H123.164V37.3319C123.164 31.0235 119.464 27.4792 112.832 27.4792C106.389 27.4792 102.503 31.0566 102.503 36.6654C102.503 42.3085 106.455 45.8792 112.832 45.8792C116.659 45.8792 119.629 44.5716 121.462 42.2621L117.012 39.6955ZM95.8974 23.658H101.188V45.3043H95.8974V23.658ZM124.48 29.4091H129.801V30.698C131.684 28.6875 133.947 27.6712 136.498 27.6712C139.436 27.6712 141.661 28.6875 142.809 30.4177C143.768 31.8467 143.831 33.5713 143.831 35.8378V45.3043H138.503V36.9865C138.503 33.5349 137.809 31.9416 134.779 31.9416C131.716 31.9416 129.801 33.7656 129.801 36.8276V45.3043H124.48V29.4091ZM160.967 36.9236C160.967 39.8864 158.987 41.8296 155.924 41.8296C152.859 41.8296 150.879 39.9526 150.879 36.9578C150.879 33.9189 152.832 32.0431 155.924 32.0431C158.987 32.0431 160.967 33.952 160.967 36.9236ZM160.967 30.1297C159.622 28.6875 157.675 27.8963 154.969 27.8963C149.132 27.8963 145.147 31.4958 145.147 36.8905C145.147 42.1793 149.105 45.8792 154.873 45.8792C157.518 45.8792 159.46 45.2105 160.967 43.7109V45.3043H166.291V22.2853L160.967 23.658V30.1297ZM83.8037 32.0431C86.8977 32.0431 88.8431 33.9189 88.8431 36.9578C88.8431 39.9526 86.8668 41.8296 83.8037 41.8296C80.7427 41.8296 78.7653 39.8864 78.7653 36.9236C78.7653 33.952 80.7427 32.0431 83.8037 32.0431ZM78.7653 23.658L73.439 22.2853V45.3043H78.7653V43.7109C80.2638 45.2105 82.2092 45.8792 84.8563 45.8792C90.6285 45.8792 94.581 42.1793 94.581 36.8905C94.581 31.4958 90.5943 27.8963 84.7603 27.8963C82.0492 27.8963 80.1038 28.6875 78.7653 30.1297V23.658ZM189.579 45.3043V29.4091H194.903V30.3912C196.498 28.4712 198.185 27.5156 200.104 27.5156C200.484 27.5156 200.963 27.5774 201.6 27.6403V32.1722C201.087 32.1049 200.515 32.1049 199.908 32.1049C196.813 32.1049 194.903 34.1462 194.903 37.6177V45.3043H189.579ZM208.503 27.5333H208.094L208.108 26.0756L208.13 25.5934L208.02 25.9907L207.537 27.5333H207.164L206.689 25.9907L206.57 25.6L206.599 26.0756L206.613 27.5333H206.212V25.1719H206.773L207.363 27.0345L207.94 25.1719H208.503V27.5333ZM205.268 27.5333H204.856V25.5217H204.097V25.1719H206.013V25.5217H205.268V27.5333Z" fill="#0E548B"/>
</svg>
