<svg width="274" height="64" viewBox="0 0 274 64" fill="none" xmlns="http://www.w3.org/2000/svg">
<path d="M261.196 20.2772C266.519 21.2911 269.814 21.5445 273.743 21.9247V43.7228C272.855 43.3426 271.842 43.0891 271.081 42.8356C269.687 42.4554 251.311 37.1327 247.509 36.1188C252.832 30.6693 257.774 24.4594 261.196 20.2772ZM259.168 62.8594C260.943 55.6356 262.337 52.4673 263.351 51.0733L266.519 49.5525C263.097 49.8059 258.915 49.8059 253.972 49.6792C245.608 49.4257 240.032 48.1584 237.244 47.1445C237.244 47.1445 239.778 44.4832 242.566 40.6812C241.046 42.0752 239.525 43.4693 238.004 44.7366C228.246 52.4673 218.36 58.0436 210.123 61.0851V64H258.915L259.168 62.8594ZM266.139 63.7465H273.743V51.2L266.139 63.7465Z" fill="#00355A"/>
<path d="M265.125 0.126731H273.743V16.2218C273.616 16.2218 273.616 16.095 273.489 16.095C270.701 14.8277 268.166 13.9406 264.745 12.9267L262.97 15.7148C257.141 14.9544 246.749 4.6891 241.933 2.91485C238.764 1.77425 235.216 0.887129 231.287 0H254.099C255.366 2.53465 256.76 4.68911 258.915 6.33663C259.549 6.84356 260.436 7.47722 260.689 7.47722C261.196 7.60395 261.703 7.47723 261.83 7.09703L265.125 0.126731ZM226.218 36.2455C231.287 32.5703 235.469 32.0634 235.469 32.0634L236.483 33.4574C237.117 32.4436 237.751 31.0495 238.131 29.402C239.145 24.4594 239.905 16.4752 240.665 10.2653C234.329 10.899 230.4 6.2099 215.826 0.126731H210.123V51.2C211.77 50.0594 213.418 48.6653 215.952 46.1307C218.107 44.103 221.909 39.4139 226.218 36.2455Z" fill="#0590C8"/>
<path d="M82.5029 21.1643H87.699C93.0217 21.1643 97.2039 24.4594 97.2039 29.9089C97.2039 35.8653 93.5287 38.9069 87.699 38.9069H82.5029V21.1643ZM85.0376 36.7524H87.699C92.1346 36.7524 94.5425 34.598 94.5425 30.0356C94.5425 25.8534 91.7544 23.4455 88.0792 23.4455H85.1643L85.0376 36.7524Z" fill="#00355A"/>
<path d="M99.9919 42.4555C100.245 42.5822 100.752 42.7089 101.132 42.7089C103.287 42.7089 103.921 39.7941 103.921 39.5406C103.921 39.2872 103.667 38.6535 103.414 38.1466L98.978 25.9802H101.639L105.188 36.7525L108.736 25.9802H111.144L106.455 39.1604C105.568 41.6951 104.681 44.4832 101.513 44.4832C100.752 44.4832 100.372 44.3565 99.8652 44.3565L99.9919 42.4555Z" fill="#00355A"/>
<path d="M113.553 25.9802H115.834V28.0079C116.594 26.4871 118.242 25.6 120.143 25.6C123.438 25.6 124.958 27.6277 124.958 31.1762V38.9069H122.551V32.1901C122.551 29.1485 121.917 27.6277 119.762 27.501C117.101 27.501 115.834 29.6554 115.834 32.8237V38.7802H113.426L113.553 25.9802Z" fill="#00355A"/>
<path d="M129.267 26.8673C130.408 26.1069 131.929 25.6 133.576 25.6C137.252 25.6 138.772 27.3742 138.772 30.9227V36.2455C138.772 37.7663 138.772 38.4 138.899 38.7802H136.618V37.1326C136.111 37.893 134.844 39.1604 132.562 39.1604C129.774 39.1604 127.747 37.893 127.747 35.1049C127.747 31.8099 131.295 30.796 133.83 30.796C134.717 30.796 135.477 30.796 136.364 30.796C136.364 28.5148 135.604 27.3742 133.196 27.3742C131.802 27.3742 130.408 27.8812 129.394 28.6416L129.267 26.8673ZM136.364 32.697C135.857 32.697 135.351 32.697 134.844 32.697C133.576 32.697 130.281 32.9505 130.281 35.2317C130.281 36.6257 131.549 37.3861 132.689 37.3861C135.097 37.3861 136.364 35.8653 136.364 33.9643V32.697Z" fill="#00355A"/>
<path d="M142.194 25.9802H144.475V27.8811C145.362 26.3604 146.63 25.7267 148.657 25.7267C150.178 25.7267 151.699 26.4871 152.333 28.2613C153.22 26.3603 155.248 25.7267 156.388 25.7267C159.683 25.7267 160.951 27.8811 160.951 30.6693V39.0336H158.543V31.3029C158.543 29.6554 158.162 27.6277 156.261 27.6277C153.854 27.6277 152.84 30.0356 152.84 32.4435V39.0336H150.432V31.3029C150.432 29.6554 150.052 27.6277 148.151 27.6277C145.743 27.6277 144.729 30.0356 144.729 32.4435V39.0336H142.321L142.194 25.9802Z" fill="#00355A"/>
<path d="M167.033 23.0653H164.372V20.4039H167.033V23.0653ZM164.499 25.9802H166.907V38.9069H164.499V25.9802Z" fill="#00355A"/>
<path d="M179.2 28.1345C178.313 27.7543 177.426 27.6276 176.665 27.6276C174.004 27.6276 172.483 30.0355 172.483 32.4434C172.483 34.7246 173.75 37.2593 176.792 37.2593C177.552 37.2593 178.566 37.0058 179.327 36.4989L179.453 38.6533C178.44 39.1603 177.299 39.1603 176.412 39.1603C172.483 39.1603 169.822 36.1187 169.822 32.3167C169.822 28.388 172.483 25.4731 176.412 25.4731C177.426 25.4731 178.566 25.7266 179.327 25.9801L179.2 28.1345Z" fill="#00355A"/>
<path d="M182.241 36.3722C183.129 37.0058 184.523 37.2593 185.283 37.2593C186.424 37.2593 187.691 36.7523 187.691 35.3583C187.691 32.9504 182.115 33.2038 182.115 29.5286C182.115 26.8672 184.142 25.4731 186.677 25.4731C187.818 25.4731 188.705 25.7266 189.592 25.9801L189.339 28.0078C188.832 27.6276 187.438 27.3741 186.804 27.3741C185.537 27.3741 184.523 27.8811 184.523 28.8949C184.523 31.5563 190.099 30.7959 190.099 34.9781C190.099 37.7662 187.944 39.0335 185.537 39.0335C184.269 39.0335 183.129 38.9068 181.988 38.2731L182.241 36.3722Z" fill="#00355A"/>
<path d="M0 21.1643H4.81584C8.49109 21.1643 11.0257 22.3049 11.0257 25.6C11.0257 28.0079 9.63168 29.2752 7.3505 29.7821C9.75842 30.0356 11.5327 31.5564 11.5327 34.091C11.5327 37.893 8.36436 38.7801 4.81584 38.7801H0V21.1643ZM2.53465 28.7683H3.92871C6.33663 28.7683 8.49109 28.5148 8.49109 25.9802C8.49109 23.8257 6.71683 23.3188 5.19604 23.3188H2.53465V28.7683ZM2.53465 36.8792H4.43564C6.71683 36.8792 8.74455 36.3722 8.74455 33.9643C8.74455 31.1762 6.33663 30.796 4.18218 30.796H2.53465V36.8792Z" fill="#0590C8"/>
<path d="M20.1504 25.6C24.0791 25.6 26.7405 28.3881 26.7405 32.4435C26.7405 36.1188 24.0791 39.2871 20.1504 39.2871C16.2217 39.2871 13.5603 36.2455 13.5603 32.4435C13.5603 28.5148 16.2217 25.6 20.1504 25.6ZM20.1504 37.2594C22.9385 37.2594 24.2058 34.7247 24.2058 32.4435C24.2058 30.0356 22.6851 27.6277 20.1504 27.6277C17.6157 27.6277 16.095 30.0356 16.095 32.4435C16.095 34.7247 17.3623 37.2594 20.1504 37.2594Z" fill="#0590C8"/>
<path d="M29.1485 36.3722C30.0356 37.0058 31.4297 37.2593 32.0634 37.2593C33.204 37.2593 34.4713 36.7523 34.4713 35.3583C34.4713 32.9504 28.895 33.2038 28.895 29.5286C28.895 26.8672 30.9228 25.4731 33.4574 25.4731C34.598 25.4731 35.4851 25.7266 36.3723 25.9801L36.1188 28.0078C35.6119 27.6276 34.2178 27.3741 33.5842 27.3741C32.3168 27.3741 31.303 27.8811 31.303 28.8949C31.303 31.5563 36.8792 30.7959 36.8792 34.9781C36.8792 37.7662 34.7247 39.0335 32.3168 39.0335C31.0495 39.0335 29.9089 38.9068 28.7683 38.2731L29.1485 36.3722Z" fill="#0590C8"/>
<path d="M47.6515 27.881H44.2298V34.978C44.2298 36.4988 45.1169 37.2592 46.2575 37.2592C47.0179 37.2592 47.5248 37.0057 47.905 36.7523V38.78C47.3981 38.9067 46.6377 39.1602 45.8773 39.1602C43.4694 39.1602 41.8218 38.0196 41.8218 35.3582V27.7542H38.907V25.8533H41.8218V22.8117L44.2298 22.0513V25.8533H47.6515V27.881Z" fill="#0590C8"/>
<path d="M56.396 25.6C60.3247 25.6 62.9861 28.3881 62.9861 32.4435C62.9861 36.1188 60.3247 39.2871 56.396 39.2871C52.4673 39.2871 49.8059 36.2455 49.8059 32.4435C49.8059 28.5148 52.4673 25.6 56.396 25.6ZM56.396 37.2594C59.1841 37.2594 60.4515 34.7247 60.4515 32.4435C60.4515 30.0356 58.9307 27.6277 56.396 27.6277C53.8614 27.6277 52.3406 30.0356 52.3406 32.4435C52.3406 34.7247 53.6079 37.2594 56.396 37.2594Z" fill="#0590C8"/>
<path d="M65.7744 25.9802H68.0556V28.0079C68.816 26.4871 70.4635 25.6 72.3645 25.6C75.7863 25.6 77.1804 27.6277 77.1804 31.1762V38.9069H74.7725V32.1901C74.7725 29.1485 74.1388 27.6277 71.9843 27.501C69.323 27.501 68.0556 29.6554 68.0556 32.8237V38.7802H65.6477V25.9802H65.7744Z" fill="#0590C8"/>
<path d="M192.127 22.4317C192.127 21.1644 193.141 20.1505 194.408 20.1505C195.675 20.1505 196.689 21.1644 196.689 22.4317C196.689 23.699 195.675 24.7129 194.408 24.7129C193.141 24.7129 192.127 23.699 192.127 22.4317ZM196.436 22.4317C196.436 21.2911 195.548 20.404 194.408 20.404C193.267 20.404 192.38 21.2911 192.38 22.4317C192.38 23.5723 193.267 24.4594 194.408 24.4594C195.548 24.4594 196.436 23.5723 196.436 22.4317ZM193.521 21.1644H194.535C195.042 21.1644 195.422 21.4178 195.422 21.9248C195.422 22.305 195.168 22.5584 194.915 22.6852L195.548 23.5723H195.042L194.535 22.8119H194.028V23.5723H193.521V21.1644ZM194.535 22.305C194.788 22.305 195.042 22.1782 195.042 21.9248C195.042 21.6713 194.915 21.5446 194.535 21.5446H194.028V22.305H194.535Z" fill="#00355A"/>
<path d="M194.408 24.8396C193.141 24.8396 192 23.6991 192 22.4317C192 21.1644 193.141 20.0238 194.408 20.0238C195.675 20.0238 196.816 21.1644 196.816 22.4317C196.816 23.6991 195.675 24.8396 194.408 24.8396ZM194.408 20.5307C193.394 20.5307 192.507 21.4179 192.507 22.4317C192.507 23.4456 193.394 24.3327 194.408 24.3327C195.422 24.3327 196.309 23.4456 196.309 22.4317C196.309 21.4179 195.422 20.5307 194.408 20.5307ZM195.802 23.6991H195.042L194.535 22.9387H194.281V23.6991H193.521V21.0377H194.661C195.295 21.0377 195.675 21.4179 195.675 21.9248C195.675 22.305 195.549 22.5585 195.168 22.6852L195.802 23.6991ZM195.168 23.4456H195.422L194.788 22.6852L194.915 22.5585C195.042 22.4317 195.295 22.305 195.295 21.9248C195.295 21.2911 194.788 21.2911 194.535 21.2911H193.648V23.4456H193.901V22.6852H194.661L195.168 23.4456ZM194.535 22.4317H193.901V21.4179H194.535C194.661 21.4179 195.168 21.4179 195.168 21.9248C195.168 22.305 194.788 22.4317 194.535 22.4317ZM194.154 22.1783H194.535C194.661 22.1783 194.915 22.1783 194.915 21.9248C194.915 21.7981 194.915 21.6713 194.535 21.6713H194.154V22.1783Z" fill="#00355A"/>
</svg>
