<svg width="182" height="64" viewBox="0 0 182 64" fill="none" xmlns="http://www.w3.org/2000/svg">
<g clip-path="url(#clip0_3376_107)">
<mask id="mask0_3376_107" style="mask-type:luminance" maskUnits="userSpaceOnUse" x="-28" y="-38" width="217" height="153">
<path d="M-27.0054 -37.917H188.702V114.603H-27.0054V-37.917Z" fill="white"/>
</mask>
<g mask="url(#mask0_3376_107)">
<path d="M89.1713 20.2383C85.8115 20.2383 83.1843 21.2961 81.287 23.4115C79.3882 25.5279 78.4407 28.2748 78.4407 31.6566C78.4407 35.6272 79.4106 38.6373 81.3505 40.6875C83.2939 42.7375 85.8454 43.7614 89.0086 43.7614C90.7097 43.7614 92.2196 43.6147 93.5388 43.32C94.8594 43.0264 95.7372 42.7252 96.174 42.4203L96.305 32.1821C96.305 31.5872 94.7347 31.3168 92.9734 31.2866C91.212 31.2594 89.1962 31.6267 89.1962 31.6267V35.0646H91.2233L91.2008 36.597C91.2008 37.1647 90.638 37.4498 89.5156 37.4498C88.3918 37.4498 87.3992 36.9741 86.5381 36.0251C85.6751 35.0748 85.2459 33.6856 85.2459 31.8554C85.2459 30.0213 85.6653 28.6693 86.5051 27.7966C87.3432 26.9249 88.4419 26.4875 89.7931 26.4875C90.3608 26.4875 90.9486 26.5791 91.5597 26.766C92.1712 26.9512 92.5794 27.1247 92.7878 27.2873C92.9944 27.4545 93.1909 27.5339 93.3767 27.5339C93.5616 27.5339 93.8611 27.3174 94.2752 26.8801C94.6899 26.4439 95.0614 25.783 95.3891 24.9018C95.7155 24.0159 95.8789 23.3368 95.8789 22.8552C95.8789 22.3773 95.8682 22.0479 95.847 21.8741C95.3888 21.3727 94.5432 20.975 93.3099 20.6794C92.0788 20.3847 90.6985 20.2384 89.1717 20.2384L89.1713 20.2383ZM109.244 20.2383C106.158 20.2383 103.638 21.2308 101.686 23.2142C99.7345 25.2002 98.759 28.1167 98.759 31.9684C98.759 35.8181 99.7237 38.7464 101.652 40.7531C103.583 42.7582 106.082 43.7608 109.146 43.7608C112.211 43.7608 114.713 42.7969 116.655 40.8687C118.597 38.9363 119.567 35.9915 119.567 32.0325C119.567 28.0765 118.619 25.1187 116.719 23.1673C114.823 21.2124 112.331 20.238 109.244 20.238V20.2383ZM152.638 20.2383C149.55 20.2383 147.031 21.2308 145.078 23.2142C143.127 25.2002 142.151 28.1167 142.151 31.9684C142.151 35.8181 143.116 38.7464 145.047 40.7531C146.977 42.7582 149.473 43.7608 152.538 43.7608C155.602 43.7608 158.106 42.7969 160.047 40.8687C161.989 38.9363 162.96 35.9915 162.96 32.0325C162.96 28.0765 162.012 25.1187 160.113 23.1673C158.215 21.2124 155.724 20.238 152.638 20.238V20.2383ZM123.928 20.531C123.491 20.531 123.137 20.6906 122.865 21.005C122.591 21.3244 122.455 21.755 122.455 22.3006V41.9297C122.455 42.9339 123.013 43.4344 124.124 43.4344H129.718C136.567 43.4344 139.993 39.4218 139.993 31.3945C139.993 27.6422 139.092 24.8952 137.291 23.1507C135.493 21.4055 132.86 20.5308 129.392 20.5308L123.928 20.531ZM164.749 20.531C164.378 20.531 164.116 21.035 163.964 22.0383C163.898 22.5179 163.867 23.0099 163.867 23.5095C163.867 24.012 163.898 24.5021 163.964 24.9808C164.116 25.9867 164.378 26.4873 164.749 26.4873H168.674V42.9132C168.674 43.3467 169.756 43.5666 171.914 43.5666C174.075 43.5666 175.153 43.3467 175.153 42.9132V26.4873H178.982C179.352 26.4873 179.613 25.9867 179.767 24.9808C179.832 24.5021 179.865 24.0121 179.865 23.5095C179.865 23.0099 179.832 22.5179 179.767 22.0383C179.613 21.035 179.352 20.531 178.982 20.531H164.749ZM109.16 26.5204C110.208 26.5204 111.086 26.9889 111.794 27.9256C112.503 28.8633 112.858 30.2063 112.858 31.9507C112.858 33.6968 112.514 35.0379 111.827 35.9749C111.14 36.9153 110.245 37.3838 109.144 37.3838C108.042 37.3838 107.154 36.9208 106.478 35.9914C105.801 35.0649 105.463 33.7355 105.463 31.9988C105.463 30.2658 105.818 28.919 106.525 27.9595C107.237 27.0008 108.113 26.5204 109.16 26.5204ZM152.553 26.5204C153.601 26.5204 154.478 26.9889 155.187 27.9256C155.896 28.8633 156.251 30.2063 156.251 31.9507C156.251 33.6968 155.907 35.0379 155.219 35.9749C154.533 36.9153 153.638 37.3838 152.536 37.3838C151.434 37.3838 150.545 36.9208 149.87 35.9914C149.195 35.0649 148.856 33.7355 148.856 31.9988C148.856 30.2658 149.21 28.919 149.917 27.9595C150.627 27.0008 151.506 26.5204 152.553 26.5204ZM128.735 26.747H129.062C130.458 26.747 131.479 27.0662 132.123 27.6988C132.764 28.3297 133.086 29.688 133.086 31.7722C133.086 33.8555 132.778 35.3428 132.155 36.2363C131.533 37.1306 130.623 37.5792 129.422 37.5792C129.096 37.5792 128.899 37.5189 128.834 37.3986C128.769 37.2778 128.735 36.9898 128.735 36.5328L128.735 26.747Z" fill="#414042"/>
<path d="M62.1916 43.0494C62.1916 43.0494 62.0974 42.4715 62.0424 42.4767L51.5569 43.4884C50.7226 43.569 50.0746 44.2343 50.0161 45.0704L49.728 49.1991L41.6161 49.7778L41.0644 46.036C40.9415 45.2037 40.2147 44.5763 39.3734 44.5763H28.3066C27.4656 44.5763 26.7388 45.2037 26.6159 46.036L26.0638 49.7778L17.952 49.1991L17.6639 45.0704C17.6054 44.234 16.9574 43.5687 16.1231 43.4881L5.6325 42.4767C5.5783 42.4715 5.5386 43.0499 5.48441 43.0499L5.47021 45.319L14.3548 46.7518L14.6458 50.9174C14.7046 51.7607 15.385 52.4425 16.2289 52.5031L27.4008 53.3001C27.4431 53.3029 27.4848 53.3047 27.5266 53.3047C28.3661 53.3047 29.0917 52.677 29.2146 51.8447L29.7823 47.9945H37.898L38.4657 51.8447C38.5883 52.6767 39.3148 53.3044 40.1555 53.3044C40.1967 53.3044 40.2378 53.3029 40.2781 53.3001L51.4515 52.5031C52.2951 52.4425 52.9758 51.7606 53.0347 50.9174L53.3253 46.7518L62.2061 45.3126L62.1916 43.0494Z" fill="white"/>
<path d="M27.2698 1.53692C24.3185 2.19303 21.399 3.10625 18.6618 4.48394C18.7244 6.90078 18.8807 9.21654 19.1974 11.5688C18.1344 12.2498 17.0173 12.8343 16.0244 13.6315C15.0156 14.4076 13.9852 15.1503 13.0718 16.0579C11.247 14.8509 9.31579 13.7166 7.32613 12.7153C5.1814 15.0235 3.17579 17.5149 1.5376 20.3026C2.77009 22.2965 4.05686 24.1653 5.4462 25.9388H5.48486V43.0488C5.51616 43.0491 5.54768 43.0505 5.57869 43.0533L16.0681 44.0644C16.6176 44.1175 17.0481 44.5598 17.0864 45.1105L17.4099 49.7408L26.5597 50.3939L27.1899 46.1202C27.2716 45.5661 27.7471 45.1556 28.3076 45.1556H39.3743C39.9345 45.1556 40.4099 45.5661 40.4916 46.1202L41.1218 50.3939L50.272 49.7408L50.5951 45.1105C50.6337 44.5598 51.0639 44.1178 51.6134 44.0644L62.0986 43.0533C62.1296 43.0504 62.1607 43.0491 62.192 43.0488V41.6834L62.1965 41.6819V25.9387H62.2352C63.6248 24.1652 64.9107 22.2963 66.1438 20.3026C64.5062 17.5147 62.4996 15.0233 60.3549 12.7152C58.3658 13.7164 56.4336 14.8507 54.6088 16.0579C53.6957 15.1502 52.6672 14.4075 51.657 13.6314C50.6644 12.8342 49.5457 12.2497 48.4848 11.5688C48.8006 9.21648 48.9571 6.90072 49.02 4.48388C46.2826 3.10619 43.3633 2.19291 40.4105 1.53687C39.2316 3.51826 38.1535 5.66357 37.2146 7.76123C36.1012 7.57518 34.9826 7.50621 33.8627 7.49287V7.49137C33.8549 7.49137 33.8476 7.49287 33.8409 7.49287C33.834 7.49287 33.8265 7.49137 33.8195 7.49137V7.49287C32.6974 7.5062 31.5797 7.57518 30.4661 7.76123C29.5277 5.66376 28.4504 3.51832 27.2698 1.53692ZM5.46693 45.3117C5.47129 46.3254 5.4842 47.4359 5.4842 47.6571C5.4842 57.6185 18.1209 62.4064 33.8206 62.4615H33.8593C49.5592 62.4065 62.1918 57.6185 62.1918 47.6571C62.1918 47.4319 62.2056 46.326 62.2102 45.3117L52.7819 46.2211L52.4569 50.8763C52.4178 51.4373 51.9715 51.8839 51.4105 51.9242L40.2372 52.7213C40.2099 52.7234 40.1827 52.7243 40.1557 52.7243C39.6005 52.7243 39.1215 52.3166 39.0395 51.759L38.3989 47.414H29.282L28.6414 51.759C28.5553 52.3438 28.0326 52.7645 27.4437 52.7213L16.2704 51.9242C15.7094 51.8839 15.2631 51.4373 15.224 50.8763L14.8994 46.2211L5.4672 45.3117H5.46693Z" fill="#478CBF"/>
<path d="M18.9708 26.5662C15.4811 26.5662 12.6504 29.394 12.6504 32.8843C12.6504 36.3769 15.481 39.2061 18.9708 39.2061C22.4623 39.2061 25.2922 36.3769 25.2922 32.8843C25.2922 29.394 22.4623 26.5662 18.9708 26.5662ZM48.71 26.5662C45.218 26.5662 42.3883 29.394 42.3883 32.8843C42.3883 36.3769 45.218 39.2061 48.71 39.2061C52.1995 39.2061 55.0297 36.3769 55.0297 32.8843C55.0297 29.394 52.1995 26.5662 48.71 26.5662ZM33.8391 30.2634C32.7153 30.2634 31.8045 31.0925 31.8045 32.1126V37.9319C31.8045 38.9528 32.7152 39.781 33.8391 39.781C34.9629 39.781 35.876 38.9528 35.876 37.9319V32.1126C35.876 31.0925 34.963 30.2634 33.8391 30.2634Z" fill="white"/>
<path d="M19.5756 29.0643C17.2583 29.0643 15.3799 30.9438 15.3799 33.2604C15.3799 35.5771 17.2584 37.4546 19.5756 37.4546C21.894 37.4546 23.7717 35.577 23.7717 33.2604C23.7717 30.9438 21.894 29.0643 19.5756 29.0643ZM48.1042 29.0643C45.7874 29.0643 43.9104 30.9438 43.9104 33.2604C43.9104 35.5771 45.7876 37.4546 48.1042 37.4546C50.4232 37.4546 52.2998 35.577 52.2998 33.2604C52.2998 30.9438 50.4231 29.0643 48.1042 29.0643Z" fill="#414042"/>
</g>
</g>
<defs>
<clipPath id="clip0_3376_107">
<rect width="181.402" height="64" fill="white"/>
</clipPath>
</defs>
</svg>
