<svg width="66" height="64" viewBox="0 0 66 64" fill="none" xmlns="http://www.w3.org/2000/svg">
<g clip-path="url(#clip0_3376_143)">
<path d="M54.0171 0H11.6239C5.20421 0 0 5.20421 0 11.6239V52.3761C0 58.7958 5.20421 64 11.6239 64H54.0171C60.4368 64 65.641 58.7958 65.641 52.3761V11.6239C65.641 5.20421 60.4368 0 54.0171 0Z" fill="#330000"/>
<path d="M31.8086 38.4078H21.6367L19.5671 44.8368C19.5389 44.954 19.4707 45.0577 19.3742 45.1301C19.2778 45.2024 19.1591 45.2388 19.0387 45.2331H13.8867C13.5929 45.2331 13.4902 45.0716 13.5785 44.7487L22.3852 19.385C22.4734 19.1208 22.5615 18.8199 22.6495 18.4823C22.7647 17.8948 22.8237 17.2976 22.8257 16.699C22.8197 16.6571 22.8235 16.6144 22.8369 16.5743C22.8503 16.5341 22.8728 16.4977 22.9027 16.4678C22.9326 16.4379 22.9691 16.4153 23.0092 16.4019C23.0493 16.3886 23.092 16.3847 23.1339 16.3907H30.1352C30.3404 16.3907 30.4578 16.4641 30.4875 16.6109L40.4834 44.7927C40.5714 45.0865 40.4833 45.2333 40.2191 45.2331H34.4946C34.3963 45.244 34.2974 45.2187 34.2164 45.162C34.1353 45.1052 34.0777 45.021 34.0543 44.9249L31.8086 38.4078ZM23.2219 32.8595H30.1793C30.0032 32.2726 29.7977 31.6121 29.5629 30.8779C29.3276 30.1445 29.078 29.3592 28.8143 28.5221C28.55 27.6855 28.2858 26.8488 28.0216 26.0121C27.7574 25.1755 27.5153 24.3682 27.2951 23.5902C27.0749 22.8128 26.8767 22.1009 26.7007 21.4546H26.6566C26.4087 22.6439 26.1001 23.8197 25.7319 24.9773C25.3205 26.2984 24.9021 27.6488 24.4769 29.0285C24.051 30.4087 23.6327 31.6857 23.2219 32.8595Z" fill="#FF9A00"/>
<path d="M46.4275 21.0583C45.9784 21.0764 45.5305 20.9994 45.1132 20.8325C44.6958 20.6655 44.3184 20.4124 44.0056 20.0896C43.6937 19.7528 43.4514 19.3576 43.2927 18.9269C43.134 18.4962 43.062 18.0383 43.0808 17.5796C43.0648 17.1255 43.1448 16.6731 43.3155 16.252C43.4862 15.8309 43.7439 15.4505 44.0716 15.1357C44.3962 14.8242 44.7793 14.5801 45.1987 14.4176C45.6182 14.2551 46.0658 14.1774 46.5155 14.189C47.5724 14.189 48.4017 14.5046 49.0035 15.1357C49.3072 15.4637 49.5433 15.8484 49.6982 16.2678C49.8531 16.6871 49.9238 17.1329 49.9061 17.5796C49.9245 18.0401 49.8502 18.4995 49.6876 18.9307C49.525 19.3619 49.2773 19.756 48.9594 20.0896C48.6271 20.4171 48.2306 20.6723 47.7949 20.839C47.3591 21.0057 46.8936 21.0804 46.4275 21.0583ZM43.389 44.7927V23.7444C43.389 23.4802 43.506 23.348 43.7413 23.348H49.1576C49.3923 23.348 49.5097 23.4801 49.5099 23.7444V44.7927C49.5099 45.0865 49.3925 45.2333 49.1576 45.2331H43.7854C43.5213 45.2331 43.3891 45.0863 43.389 44.7927Z" fill="#FF9A00"/>
</g>
<defs>
<clipPath id="clip0_3376_143">
<rect width="65.641" height="64" fill="white"/>
</clipPath>
</defs>
</svg>
