<svg width="160" height="64" viewBox="0 0 160 64" fill="none" xmlns="http://www.w3.org/2000/svg">
<path d="M157.932 40.9053V40.4621H158.211C158.359 40.4621 158.572 40.4785 158.572 40.6591C158.572 40.8397 158.457 40.9053 158.276 40.9053H157.932ZM157.932 41.2172H158.129L158.572 41.9888H159.048L158.556 41.1844C158.802 41.2008 158.999 41.0203 159.015 40.774V40.7084C159.015 40.2816 158.72 40.1502 158.227 40.1502H157.521V41.9888H157.932V41.2172ZM160 41.0695C160 39.9861 159.163 39.3623 158.227 39.3623C157.292 39.3623 156.454 39.9861 156.454 41.0695C156.454 42.1529 157.292 42.7767 158.227 42.7767C159.163 42.7767 160 42.1529 160 41.0695ZM159.475 41.0695C159.508 41.7589 158.966 42.3499 158.276 42.3827H158.227C157.505 42.4156 156.898 41.841 156.865 41.1187C156.832 40.3965 157.406 39.7891 158.129 39.7563C158.851 39.7234 159.458 40.298 159.491 41.0203C159.475 41.0367 159.475 41.0531 159.475 41.0695Z" fill="black"/>
<path d="M94.9134 22.832V42.2021H100.38V22.832H94.9134ZM51.9053 22.7992V42.1857H57.4208V27.1328L61.7216 27.1493C63.1333 27.1493 64.1183 27.494 64.7913 28.2162C65.6613 29.1355 66.006 30.6293 66.006 33.3378V42.1857H71.3574V31.4829C71.3574 23.8334 66.4821 22.7992 61.7216 22.7992H51.9053ZM103.728 22.832V42.2021H112.593C117.32 42.2021 118.863 41.4142 120.521 39.6577C121.703 38.4266 122.458 35.7016 122.458 32.7305C122.458 30.0055 121.818 27.576 120.685 26.0658C118.683 23.3573 115.761 22.832 111.394 22.832H103.728ZM109.145 27.0343H111.493C114.907 27.0343 117.107 28.561 117.107 32.5335C117.107 36.506 114.907 38.049 111.493 38.049H109.145V27.0343ZM87.034 22.832L82.4706 38.1803L78.1041 22.832H72.1946L78.4324 42.2021H86.3118L92.6152 22.832H87.034ZM125.019 42.2021H130.485V22.832H125.019V42.2021ZM140.351 22.832L132.718 42.1857H138.102L139.317 38.7549H148.345L149.494 42.1693H155.355L147.656 22.832H140.351ZM143.897 26.3613L147.213 35.4226H140.482L143.897 26.3613Z" fill="black"/>
<path d="M16.6287 26.0495V23.3902C16.8914 23.3738 17.154 23.3573 17.4166 23.3573C24.705 23.1275 29.4819 29.628 29.4819 29.628C29.4819 29.628 24.3275 36.7851 18.7955 36.7851C18.0568 36.7851 17.3346 36.6702 16.6451 36.4403V28.364C19.485 28.7087 20.0595 29.9563 21.7503 32.7962L25.5422 29.6116C25.5422 29.6116 22.768 25.9838 18.1061 25.9838C17.6136 25.9674 17.1212 26.0002 16.6287 26.0495ZM16.6287 17.2509V21.2234L17.4166 21.1741C27.5449 20.8294 34.1603 29.4803 34.1603 29.4803C34.1603 29.4803 26.5764 38.7057 18.6806 38.7057C17.9912 38.7057 17.3182 38.64 16.6451 38.5251V40.9874C17.2032 41.0531 17.7778 41.1023 18.3359 41.1023C25.69 41.1023 31.0085 37.3432 36.1629 32.9111C37.0165 33.6005 40.513 35.2584 41.2353 35.9807C36.3435 40.0845 24.9349 43.384 18.4672 43.384C17.8434 43.384 17.2525 43.3512 16.6615 43.2855V46.7492H44.6004V17.2509H16.6287ZM16.6287 36.4403V38.5415C9.83277 37.3268 7.94501 30.2518 7.94501 30.2518C7.94501 30.2518 11.2117 26.6404 16.6287 26.0495V28.3476H16.6123C13.7724 28.0029 11.54 30.6622 11.54 30.6622C11.54 30.6622 12.8039 35.1435 16.6287 36.4403ZM4.56346 29.9563C4.56346 29.9563 8.58521 24.014 16.6451 23.3902V21.2234C7.7152 21.9456 0 29.4967 0 29.4967C0 29.4967 4.36647 42.1365 16.6287 43.2855V40.9874C7.63312 39.8712 4.56346 29.9563 4.56346 29.9563Z" fill="#76B900"/>
</svg>
