<svg width="315" height="64" viewBox="0 0 315 64" fill="none" xmlns="http://www.w3.org/2000/svg">
<g clip-path="url(#clip0_3382_99)">
<path d="M78.3264 41.8545L83.7793 38.9904C86.2041 43.7815 89.9468 46.0892 95.0073 46.0892C99.9624 46.0892 103.318 44.4902 103.318 40.8061C103.318 37.2802 100.788 35.6285 94.0702 33.6488C86.1983 31.3353 79.8668 29.1916 79.8668 21.4251C79.8668 14.4904 85.5364 9.92188 93.7949 9.92188C101.831 9.92188 106.569 13.8871 109.047 18.6723L104.039 22.1397C101.614 18.0632 98.1467 16.1948 93.7422 16.1948C89.2264 16.1948 86.6376 17.8465 86.6376 20.8218C86.6376 24.6231 89.5544 25.8882 96.2139 27.8679C103.922 30.1228 110.089 32.6589 110.089 40.3083C110.089 46.9677 104.42 52.1981 94.732 52.1981C86.6434 52.2039 80.9152 48.022 78.3264 41.8545Z" fill="#363545"/>
<path d="M112.959 51.4307V10.6949H119.73V34.9724L130.794 22.1982H138.227L128.703 32.8815L139.052 51.4366H131.948L124.404 37.8951L119.724 43.0142V51.4366H112.959V51.4307Z" fill="#363545"/>
<path d="M138.672 36.8468C138.672 25.7242 146.544 21.6536 152.6 21.6536C159.154 21.6536 165.427 25.5602 165.427 37.4559V39.0549H145.442C145.718 44.3379 148.968 46.6515 153.262 46.6515C157.063 46.6515 159.265 45.3863 161.467 43.2368L165.046 46.7627C162.018 50.1188 158 52.0458 152.77 52.0458C145.442 52.0399 138.672 47.5769 138.672 36.8468ZM159.206 33.9827C158.82 29.5254 156.618 27.1533 152.547 27.1533C149.244 27.1533 146.216 29.0276 145.554 33.9827H159.206Z" fill="#363545"/>
<path d="M172.748 43.7815V27.5926H167.682V22.1982H172.748V12.0128H179.519V22.1982H187.063V27.5926H179.519V42.0712C179.519 45.2106 180.456 46.4757 183.812 46.4757C184.802 46.4757 186.067 46.3117 186.729 46.0891V51.4308C186.014 51.5948 183.478 51.8173 181.774 51.8173C174.347 51.8173 172.748 49.0645 172.748 43.7815Z" fill="#363545"/>
<path d="M189.704 36.8468C189.704 25.6715 197.248 21.6536 203.743 21.6536C211.012 21.6536 214.093 25.6715 215.856 30.1873L210.128 32.2255C208.974 28.9222 206.877 27.3232 203.632 27.3232C199.778 27.3232 196.528 29.8534 196.528 36.8468C196.528 43.0669 199.058 46.4816 203.521 46.4816C206.602 46.4816 208.751 45.5445 210.35 41.4153L215.967 43.4535C213.876 48.1333 210.409 52.0399 203.363 52.0399C196.586 52.0399 189.704 47.5242 189.704 36.8468Z" fill="#363545"/>
<path d="M220.038 51.4307V10.6949H226.867V26.1634C228.741 24.1837 232.262 21.6476 237.545 21.6476C242.664 21.6476 245.967 24.6757 245.967 30.4566V51.4307H239.144V32.161C239.144 28.9162 237.767 27.4285 234.792 27.4285C231.816 27.4285 229.339 28.9689 226.861 31.2298V51.4366H220.038V51.4307Z" fill="#363545"/>
<path d="M251.145 36.5655V10.6949H258.027V35.9623C258.027 42.1825 260.727 45.8724 267 45.8724C273.22 45.8724 275.92 42.2937 275.92 36.015V10.6949H282.691V36.5128C282.691 45.7611 277.46 52.0926 266.947 52.0926C255.713 52.0926 251.145 45.8197 251.145 36.5655Z" fill="#363545"/>
<path d="M287.148 62.4421V22.1983H293.919V26.0522C295.846 23.7387 298.874 21.6477 303.226 21.6477C309.885 21.6477 314.787 26.6555 314.787 36.7882C314.787 46.9209 309.78 51.8701 302.288 51.8701C299.149 51.8701 296.068 50.605 293.919 48.1802V62.4362H287.148V62.4421ZM308.017 36.8468C308.017 30.6793 305.375 27.4345 301.023 27.4345C298.218 27.4345 295.518 29.1974 293.919 31.1244V42.8502C295.734 45.2165 298.376 46.4816 300.801 46.4816C305.926 46.4757 308.017 43.3422 308.017 36.8468Z" fill="#363545"/>
<path d="M58.6292 14.0686L37.8894 2.11435C37.8894 2.11435 34.6036 0.193237 29.3615 0.193237C23.9027 0.193237 20.7399 2.17292 20.7399 2.17292L1.52881 13.1666L30.7555 29.9646V63.9121L49.99 52.9301C49.99 52.9301 53.4281 51.0324 56.0404 46.5225C58.3422 42.5514 58.6292 38.7092 58.6292 38.7092V14.0686ZM27.3525 19.5976C27.3525 19.5976 31.6399 18.8069 35.2654 20.8979C38.8909 22.9889 41.0288 24.2189 41.0288 24.2189C41.0288 24.2189 41.0346 27.1298 41.0346 31.4816C41.0346 34.9666 38.0827 38.5804 38.0827 38.5804L38.0885 25.7944L27.3525 19.5976ZM44.3497 47.6412L38.0885 51.2316V47.8638L42.9616 45.0758C47.6004 41.7314 48.3676 36.7998 48.3676 35.0895L48.3501 19.9432L35.0604 12.2939C35.0604 12.2939 33.0397 10.9702 29.4084 10.9702C25.777 10.9702 23.7973 12.1943 23.7973 12.1943L19.1292 14.8769L16.1831 13.1725L22.6318 9.48838C22.6318 9.48838 25.1562 8.08854 29.3849 8.08854C33.2682 8.08854 36.2904 9.60552 36.2904 9.60552L51.2962 18.274L51.2786 34.8026C51.384 37.3445 50.2009 43.553 44.3497 47.6412Z" fill="#005F9E"/>
<path d="M0.0527344 24.1603L20.5407 35.9154L20.5231 39.418L8.8676 32.7351L1.53457 36.9053L20.5114 47.8404L20.5231 51.2141L0.193304 39.5175C0.246017 40.8881 1.48771 45.111 3.86567 48.3793C6.27878 51.6885 9.03159 53.0942 9.03159 53.0942L27.821 63.9122V31.6515L0.0703055 15.7145L0.0527344 24.1603Z" fill="#005F9E"/>
</g>
<defs>
<clipPath id="clip0_3382_99">
<rect width="314.787" height="64" fill="white"/>
</clipPath>
</defs>
</svg>
