<svg width="231" height="64" viewBox="0 0 231 64" fill="none" xmlns="http://www.w3.org/2000/svg">
<g clip-path="url(#clip0_3362_99)">
<path d="M75.3715 19.5341L71.2849 35.8856H79.8334L75.3715 19.5341Z" fill="#F74843"/>
<path d="M24.9001 13.0051L32.3542 42.2402L39.6498 13.0051H47.6854L35.8963 51.7033H28.8122L17.2873 13.0051H24.9001ZM69.995 13.0051H80.4097L91.4059 51.7561H83.5817L80.9912 42.0816H69.4135C69.4135 42.0816 67.4046 49.853 66.9817 51.5975C64.6555 51.7561 58.9988 51.5975 58.9988 51.5975L69.995 13.0051ZM110.173 13.0051H117.786V45.2007H134.016V51.7033H110.173V13.0051ZM151.145 13.0051L158.599 41.8701L165.842 13.0051H173.666L161.93 51.7561H155.057L143.321 13.0051H151.145ZM205.914 13.0051V18.0274H195.5V23.6312H205.016V28.6535H195.5V34.416H205.914V39.4383H189.684V13.0051H205.914ZM0 65.1313H230.497V-0.581543H0" fill="#F74843"/>
</g>
<defs>
<clipPath id="clip0_3362_99">
<rect width="230.497" height="64" fill="white"/>
</clipPath>
</defs>
</svg>
