<svg width="234" height="64" viewBox="0 0 234 64" fill="none" xmlns="http://www.w3.org/2000/svg">
<path d="M0 26.046C0 10.7057 9.85481 0 23.5229 0C37.1911 0 47.0464 10.7057 47.0464 26.046C47.0464 41.3861 37.1911 52.0917 23.5229 52.0917C9.85481 52.0917 0 41.3861 0 26.046ZM38.0123 26.046C38.0123 15.076 32.029 7.94865 23.5229 7.94865C15.0174 7.94865 9.03362 15.0467 9.03362 26.046C9.03362 37.0447 15.0174 44.1428 23.5229 44.1428C32.029 44.1428 38.0123 37.0447 38.0123 26.046ZM72.3884 52.0917C67.6073 52.0917 64.0876 50.1853 61.7706 47.4572V64H53.3233V14.3721H61.7706V18.3024C64.0876 15.5453 67.6073 13.6681 72.3884 13.6681C82.7421 13.6681 88.6376 22.4088 88.6376 32.88C88.6376 43.3512 82.7125 52.0917 72.3884 52.0917ZM61.5357 31.8239V33.9944C61.5357 40.8284 65.466 44.7005 70.6868 44.7005C76.8171 44.7005 80.1315 39.9194 80.1315 32.88C80.1315 25.8407 76.8171 21.0596 70.6868 21.0596C65.466 21.0596 61.5357 24.8724 61.5357 31.8239ZM111.486 52.0917C100.927 52.0917 93.5356 44.2894 93.5356 32.88C93.5356 21.4702 100.869 13.6681 111.134 13.6681C121.4 13.6681 127.53 21.7633 127.53 31.9118V34.7277H101.631C102.276 41.0633 106.06 44.9349 111.486 44.9349C115.651 44.9349 118.936 42.8232 120.08 39.0098L127.325 41.7671C124.714 48.2493 118.878 52.1208 111.486 52.1208V52.0917ZM111.075 20.7664C106.705 20.7664 103.332 23.3766 102.071 28.363H119.024C118.965 24.2861 116.414 20.7664 111.075 20.7664ZM133.895 51.3287V14.3721H142.342V18.3024C144.454 15.8386 147.768 13.6681 152.549 13.6681C160.293 13.6681 164.927 19.0063 164.927 26.9846V51.3287H156.48V29.4482C156.48 24.8724 154.661 21.558 149.998 21.558C146.184 21.558 142.313 24.374 142.313 29.6535V51.3287H133.865H133.895ZM189.682 0.791929H199.889L219.042 51.3287H209.95L205.579 39.7728H183.757L179.475 51.3287H170.529L189.682 0.791929ZM194.61 10.7937L186.719 31.9118H202.617L194.58 10.7937H194.61ZM233.531 0.791929V51.3287H224.527V0.791929H233.531Z" fill="black"/>
</svg>
