<svg width="64" height="62" viewBox="0 0 64 62" fill="none" xmlns="http://www.w3.org/2000/svg">
<g clip-path="url(#clip0_3376_139)">
<path d="M11.4 4.89303e-05H52.8C54.2796 -0.00387753 55.7452 0.286163 57.1118 0.85333C58.4784 1.4205 59.7187 2.25349 60.7606 3.30394C61.8026 4.3544 62.6256 5.60138 63.1817 6.9725C63.7377 8.34362 64.0159 9.81154 64 11.291V50.709C63.9936 52.1992 63.6936 53.6734 63.117 55.0475C62.5405 56.4216 61.6988 57.6686 60.6401 58.7172C59.5814 59.7658 58.3263 60.5955 56.9468 61.1588C55.5672 61.7221 54.0901 62.0079 52.6 62H11.4C9.90994 62.0078 8.43293 61.7219 7.05342 61.1585C5.67391 60.5952 4.41893 59.7655 3.36022 58.7169C2.30151 57.6683 1.45982 56.4214 0.883262 55.0474C0.306699 53.6733 0.00656616 52.1991 1.68671e-05 50.709V11.291C-0.0101808 9.79623 0.278536 8.31446 0.849197 6.93282C1.41986 5.55118 2.26095 4.29755 3.32303 3.24562C4.38512 2.19369 5.64677 1.36468 7.03383 0.80732C8.42089 0.249959 9.90537 -0.0245091 11.4 4.89303e-05Z" fill="#001E36"/>
<path d="M14.3999 43.522V16.122C14.3999 15.922 14.3999 15.722 14.5999 15.722H22.9999C24.835 15.6313 26.67 15.9031 28.3999 16.522C29.7203 16.9442 30.9439 17.624 31.9999 18.522C32.8886 19.3548 33.573 20.3814 33.9999 21.522C34.3924 22.6128 34.5954 23.7628 34.5999 24.922C34.6492 26.9081 34.091 28.8618 32.9999 30.522C31.9312 31.9649 30.4747 33.0746 28.7999 33.722C26.8672 34.3779 24.8408 34.7156 22.7999 34.722H20.1999V43.322C20.1788 43.4736 20.1085 43.6141 19.9999 43.722H14.7999C14.5999 43.922 14.3999 43.722 14.3999 43.522ZM20.1999 20.922V29.922H22.5999C23.6106 29.8873 24.6154 29.7533 25.5999 29.522C26.4407 29.2507 27.198 28.7687 27.7999 28.122C28.4171 27.3265 28.7037 26.3235 28.5999 25.322C28.5911 24.486 28.3855 23.6638 27.9999 22.922C27.4983 22.2873 26.8891 21.7457 26.1999 21.322C25.1834 20.9125 24.0957 20.7086 22.9999 20.722H21.1999C20.8595 20.7465 20.5235 20.8137 20.1999 20.922Z" fill="#31A8FF"/>
<path d="M51.1999 28.067C50.3839 27.6145 49.5088 27.2779 48.6 27.067C47.6155 26.8357 46.6106 26.7017 45.6 26.667C45.0589 26.6345 44.5164 26.7023 44 26.867C43.6 26.867 43.4 27.067 43.2 27.467C43 27.667 43 27.867 43 28.267C42.9865 28.3755 42.9975 28.4858 43.0321 28.5896C43.0667 28.6934 43.1241 28.7881 43.2 28.867C43.4921 29.1814 43.8291 29.4509 44.2 29.667C44.7599 30.016 45.3657 30.2852 46 30.467C47.4258 30.9299 48.7741 31.604 50 32.467C50.8299 33.0969 51.57 33.837 52.1999 34.667C52.6093 35.5429 52.8144 36.5002 52.8 37.467C52.7499 38.7282 52.4076 39.9606 51.8 41.067C50.9876 42.0769 49.9635 42.8961 48.8 43.4669C47.2706 44.0559 45.6376 44.3281 44 44.267C42.791 44.2326 41.5869 44.0988 40.4 43.867C39.4425 43.6934 38.5046 43.4254 37.6 43.067C37.4 43.067 37.2 42.667 37.2 42.467V37.867L37.4 37.667H37.6C38.6803 38.2531 39.8201 38.7224 41 39.067C42.0499 39.3109 43.1223 39.4449 44.2 39.467C44.9533 39.49 45.703 39.3537 46.4 39.067C46.6331 38.963 46.832 38.7951 46.9736 38.5827C47.1152 38.3703 47.1937 38.1221 47.2 37.867C47.2037 37.6608 47.1495 37.4577 47.0434 37.2809C46.9373 37.1041 46.7836 36.9606 46.6 36.867C45.8133 36.3124 44.9323 35.9058 44 35.667C42.6369 35.2022 41.3548 34.5274 40.2 33.667C39.3817 33.0872 38.6993 32.3366 38.2 31.467C37.7906 30.591 37.5855 29.6337 37.6 28.667C37.6248 27.5273 37.9715 26.418 38.6 25.467C39.2303 24.3694 40.2189 23.522 41.4 23.067C42.9011 22.367 44.5442 22.0247 46.2 22.067C47.337 22.0338 48.4747 22.1007 49.6 22.267C50.4207 22.3721 51.2263 22.5735 52 22.867L52.1999 23.067V27.867L52 28.067H51.1999Z" fill="#31A8FF"/>
</g>
<defs>
<clipPath id="clip0_3376_139">
<rect width="63.999" height="62" fill="white"/>
</clipPath>
</defs>
</svg>
