<svg width="70" height="64" viewBox="0 0 70 64" fill="none" xmlns="http://www.w3.org/2000/svg">
<g clip-path="url(#clip0_3376_101)">
<path d="M69.0543 63.5493C68.7324 63.8712 68.3783 64.0322 67.9276 64.0322C67.4769 64.0322 67.1227 63.8712 66.8008 63.5493C66.4789 63.2274 66.3501 62.8733 66.3501 62.4226C66.3501 61.9719 66.5111 61.6177 66.8008 61.2958C67.1227 60.9739 67.4769 60.8451 67.9276 60.8451C68.3783 60.8451 68.7324 61.0061 69.0543 61.2958C69.3763 61.6177 69.5372 61.9719 69.5372 62.4226C69.5372 62.8411 69.3763 63.2274 69.0543 63.5493ZM66.9618 61.4568C66.7042 61.7143 66.5754 62.0362 66.5754 62.4226C66.5754 62.8089 66.7042 63.1308 66.9618 63.3884C67.2193 63.6459 67.5412 63.8069 67.9276 63.8069C68.3139 63.8069 68.6358 63.6781 68.8934 63.3884C69.1509 63.1308 69.2797 62.8089 69.2797 62.4226C69.2797 62.0362 69.1509 61.7143 68.8934 61.4568C68.6358 61.1992 68.3139 61.0704 67.9276 61.0704C67.5734 61.0383 67.2515 61.167 66.9618 61.4568ZM67.9276 61.5212C68.1529 61.5212 68.3139 61.5533 68.4105 61.5855C68.6036 61.6499 68.668 61.8109 68.668 62.0362C68.668 62.1972 68.6036 62.2938 68.507 62.3904C68.4427 62.4226 68.3461 62.4548 68.2495 62.4869C68.3783 62.5191 68.4748 62.5513 68.5392 62.6479C68.6036 62.7445 68.6358 62.8411 68.6358 62.9055V63.2918H68.3461V63.0664C68.3461 62.8733 68.2817 62.7445 68.1851 62.6801C68.1207 62.6479 67.9919 62.6157 67.831 62.6157H67.6056V63.2918H67.2837V61.5533H67.9276V61.5212ZM68.2495 61.8109C68.1851 61.7787 68.0563 61.7465 67.8632 61.7465H67.6056V62.3582H67.8954C68.0241 62.3582 68.1207 62.3582 68.1851 62.326C68.3139 62.2938 68.3783 62.1972 68.3783 62.0684C68.3783 61.9397 68.3139 61.8753 68.2495 61.8109Z" fill="black"/>
<path d="M57.4326 0H12.33C5.53722 0 0 5.37626 0 11.9437V52.0241C0 58.6881 5.34407 63.9356 12.2012 63.9356H57.336C64.1932 63.9356 69.5372 58.6881 69.5372 52.0241V11.9437C69.5372 5.24748 64.2253 0 57.4326 0ZM68.1529 52.0241C68.1529 57.9477 63.3883 62.5513 57.3038 62.5513H12.2012C6.1167 62.5835 1.38431 57.9477 1.38431 52.0241V11.9437C1.38431 6.02012 6.18109 1.35211 12.33 1.35211H57.4648C63.4849 1.35211 68.1851 5.98793 68.1851 11.9437V52.0241H68.1529Z" fill="#040301"/>
<path d="M68.1529 52.0242C68.1529 57.9478 63.3883 62.5514 57.3038 62.5514H12.2012C6.11667 62.5836 1.38428 57.9478 1.38428 52.0242V11.9437C1.38428 6.02018 6.18106 1.35217 12.33 1.35217H57.4648C63.4849 1.35217 68.1851 5.98799 68.1851 11.9437V52.0242H68.1529Z" fill="#FFAB00"/>
<path d="M55.6943 39.3078H49.9317L48.9337 33.0302L45.2315 39.2434H39.4045L42.9458 42.9778L40.0484 49.2555L46.4226 45.4567L51.4126 49.3199L50.479 42.9778" fill="white"/>
<path d="M59.7184 38.0523H50.994L49.6097 29.3602L44.5232 37.9879H43.5574C42.9779 36.9899 42.7526 35.5412 42.7526 34.6398C42.7526 33.1589 42.8492 31.7103 42.8492 29.8109C42.8492 27.2998 42.1087 25.9799 40.1449 25.497V25.4326C44.2978 24.8531 46.1972 22.0845 46.1972 18.2213C46.1972 12.7163 42.5272 11.5251 37.7304 11.5251H24.821L19.3481 37.4084H26.2053L28.2013 27.9759H32.7727C35.2194 27.9759 36.2174 29.167 36.2174 31.4527C36.2174 33.1911 36.0242 34.5754 36.0242 35.8954C36.0242 36.3783 36.1208 37.5372 36.4749 37.9879L41.4326 43.2354L37.151 52.4105L46.2938 46.9698L53.1188 52.2173L51.8632 43.5573L59.7184 38.0523ZM34.8331 23.1469H29.3602L30.6801 16.9014H35.7667C37.5695 16.9014 39.4689 17.3843 39.4689 19.5734C39.4689 22.3742 37.3119 23.1469 34.8331 23.1469ZM46.4226 45.4567L40.0483 49.2555L42.9779 43.0101L39.4367 39.2756H45.2636L48.9337 33.0624L49.9316 39.34H55.7264L50.5111 42.9779L51.4447 49.3521L46.4226 45.4567Z" fill="#040301"/>
</g>
<defs>
<clipPath id="clip0_3376_101">
<rect width="69.5372" height="64" fill="white"/>
</clipPath>
</defs>
</svg>
