<svg width="64" height="64" viewBox="0 0 64 64" fill="none" xmlns="http://www.w3.org/2000/svg">
<g clip-path="url(#clip0_3376_99)">
<path d="M50.4026 39.224V27.4773C50.4026 26.9573 50.0026 26.6773 49.6026 26.9573L37.5946 33.8827C37.3332 34.024 37.0746 34.424 37.0746 34.824V48.6933C37.0746 49.2347 37.4746 49.4933 37.8746 49.2347L47.9999 43.368L57.8853 49.0907L32.1279 63.96L32.0692 64L31.9892 63.96L14.5599 53.8747L6.29325 49.072L16.1199 43.368L26.2666 49.232C26.6666 49.4933 27.0666 49.0933 26.9279 48.5707V34.6827C26.9279 34.2827 26.7892 34.0213 26.3866 33.7627L14.3786 26.8187C14.1172 26.6773 13.5786 26.9573 13.5786 27.36V39.088L3.71191 44.832V14.9493L29.7279 0V11.4667L19.5812 17.352C19.1812 17.472 19.1812 18.152 19.5812 18.272L31.5892 25.216C31.8692 25.3573 32.2692 25.4773 32.6692 25.216L44.6772 18.272C45.0772 18.152 45.0772 17.6107 44.6772 17.352L34.5306 11.4667V0L60.2879 14.9493V44.768L50.4026 39.224Z" fill="black"/>
</g>
<defs>
<clipPath id="clip0_3376_99">
<rect width="64" height="64" fill="white"/>
</clipPath>
</defs>
</svg>
