<svg width="64" height="64" viewBox="0 0 64 64" fill="none" xmlns="http://www.w3.org/2000/svg">
<path fill-rule="evenodd" clip-rule="evenodd" d="M31.0303 64C48.1687 64 62.0606 49.674 62.0606 32C62.0606 14.326 48.1687 0 31.0303 0C13.8938 0 0 14.326 0 32C0 49.674 13.8938 64 31.0303 64ZM38.9682 49.79C46.5551 46.094 48.9348 39.27 49.4701 36.61C46.6967 39.54 43.6267 42.51 41.5612 40.454C41.5612 40.454 41.4487 29.482 41.4487 24.982C41.4487 18.932 47.0128 14.422 47.0128 14.422C43.9525 14.986 40.2773 16.11 36.3772 20.056C36.0262 20.416 35.6926 20.794 35.3784 21.19C33.7067 19.87 31.5384 20.266 31.5384 20.266C32.7118 20.928 33.8793 22.86 33.8793 24.458V40.172C33.8793 40.172 31.327 42.486 29.3605 42.486C28.9174 42.4892 28.48 42.3832 28.0847 42.1769C27.6893 41.9706 27.3475 41.67 27.0875 41.3C26.9323 41.0898 26.8039 40.8599 26.7055 40.616V21.204C26.1236 21.698 24.159 22.104 24.159 18.744C24.159 16.652 25.6175 14.164 28.2182 12.636C24.6487 13.1963 21.3054 14.7854 18.5736 17.22C16.4984 19.0692 14.8387 21.3623 13.7101 23.94C12.5814 26.5176 12.0107 29.3179 12.0378 32.146C12.0378 32.146 13.9384 26.022 16.3181 25.456C16.665 25.3622 17.0284 25.3531 17.3794 25.4296C17.7304 25.506 18.0592 25.6658 18.3397 25.8963C18.6203 26.1268 18.8448 26.4216 18.9955 26.7573C19.1462 27.093 19.2189 27.4603 19.2078 27.83V42.214C19.2078 43.672 18.2962 43.99 17.4526 43.974C16.8818 43.9328 16.3175 43.8234 15.7712 43.648C17.5103 46.0746 19.77 48.0538 22.3736 49.4308C24.9772 50.8078 27.8543 51.5454 30.7801 51.586L35.9195 46.256L38.9682 49.788V49.79Z" fill="black"/>
</svg>
